<svg xmlns="http://www.w3.org/2000/svg" width="200" height="160" viewBox="0 0 200 160"><rect width="100%" height="100%" fill="#DDDDDD"/><path fill="#999999" d="M46.68 86.66h5.01q.54 0 .86.3t.32.8v2H39.48v-1.11q0-.33.14-.71.14-.37.45-.66L46 81.34q.74-.76 1.33-1.45.58-.69.97-1.36.4-.68.6-1.37.21-.7.21-1.47 0-.7-.2-1.23-.2-.54-.57-.9t-.89-.55q-.52-.18-1.17-.18-.59 0-1.1.17t-.9.47q-.39.31-.66.71-.27.41-.41.89-.22.62-.59.83-.36.2-1.05.09l-1.76-.31q.21-1.4.79-2.46t1.45-1.77 1.99-1.07q1.13-.36 2.43-.36 1.35 0 2.47.4t1.92 1.13q.79.73 1.24 1.75.44 1.03.44 2.28 0 1.08-.31 2-.32.92-.85 1.76-.54.84-1.25 1.62-.72.78-1.5 1.59l-4.4 4.5q.63-.19 1.26-.29t1.19-.1M69.09 80q0 2.55-.54 4.43-.55 1.89-1.51 3.12-.97 1.22-2.29 1.83-1.31.6-2.84.6-1.52 0-2.83-.6-1.3-.61-2.26-1.83-.96-1.23-1.5-3.12-.54-1.88-.54-4.43 0-2.57.54-4.44.54-1.88 1.5-3.11t2.26-1.83q1.31-.6 2.83-.6 1.53 0 2.84.6 1.32.6 2.29 1.83.96 1.23 1.51 3.11.54 1.87.54 4.44m-3.44 0q0-2.12-.31-3.51t-.83-2.21q-.52-.83-1.19-1.16-.68-.33-1.41-.33-.71 0-1.38.33t-1.18 1.16q-.52.82-.82 2.21t-.3 3.51.3 3.51.82 2.21q.51.83 1.18 1.16t1.38.33q.73 0 1.41-.33.67-.33 1.19-1.16.52-.82.83-2.21t.31-3.51m19.1 0q0 2.55-.54 4.43-.55 1.89-1.51 3.12-.97 1.22-2.29 1.83-1.31.6-2.84.6-1.52 0-2.83-.6-1.3-.61-2.26-1.83-.96-1.23-1.5-3.12-.54-1.88-.54-4.43 0-2.57.54-4.44.54-1.88 1.5-3.11t2.26-1.83q1.31-.6 2.83-.6 1.53 0 2.84.6 1.32.6 2.29 1.83.96 1.23 1.51 3.11.54 1.87.54 4.44m-3.44 0q0-2.12-.31-3.51t-.83-2.21q-.52-.83-1.19-1.16-.68-.33-1.41-.33-.71 0-1.38.33t-1.18 1.16q-.52.82-.82 2.21t-.3 3.51.3 3.51.82 2.21q.51.83 1.18 1.16t1.38.33q.73 0 1.41-.33.67-.33 1.19-1.16.52-.82.83-2.21t.31-3.51m24.88 5.29-1.77 1.74-4.57-4.57-4.62 4.6-1.77-1.74 4.62-4.63-4.4-4.4 1.75-1.76 4.4 4.4 4.38-4.37 1.78 1.75-4.39 4.39zm18.48 1.97h3.51v2.5h-10.8v-2.5h3.96V75.88q0-.67.04-1.39l-2.81 2.35q-.24.19-.48.24-.23.04-.44 0t-.37-.14q-.17-.1-.25-.22l-1.05-1.45 5.95-5.06h2.74zm18.04-17.02-5.79 7.09-.68.83q.57-.28 1.22-.44.66-.15 1.42-.15 1.1 0 2.15.36 1.05.37 1.84 1.1.8.74 1.28 1.83.49 1.1.49 2.56 0 1.36-.5 2.55-.5 1.2-1.4 2.09-.91.89-2.18 1.4-1.28.52-2.82.52-1.56 0-2.81-.5-1.24-.5-2.12-1.4-.87-.9-1.34-2.16-.46-1.26-.46-2.8 0-1.38.56-2.83t1.73-3.02l4.66-6.25q.24-.32.71-.55.46-.23 1.07-.23zm-5.04 17.01q.8 0 1.47-.27t1.15-.76q.48-.48.75-1.14.27-.65.27-1.42 0-.84-.26-1.51t-.73-1.13q-.47-.47-1.13-.71-.67-.24-1.46-.24-.8 0-1.45.27-.64.27-1.1.75t-.72 1.13q-.26.66-.26 1.41 0 .81.23 1.48.22.67.66 1.14t1.09.74q.64.26 1.49.26M160.52 80q0 2.55-.55 4.43-.55 1.89-1.51 3.12-.97 1.22-2.28 1.83-1.32.6-2.85.6-1.52 0-2.82-.6-1.31-.61-2.27-1.83-.95-1.23-1.49-3.12-.54-1.88-.54-4.43 0-2.57.54-4.44.54-1.88 1.49-3.11.96-1.23 2.27-1.83 1.3-.6 2.82-.6 1.53 0 2.85.6 1.31.6 2.28 1.83.96 1.23 1.51 3.11.55 1.87.55 4.44m-3.45 0q0-2.12-.31-3.51t-.83-2.21q-.52-.83-1.19-1.16-.68-.33-1.41-.33-.71 0-1.38.33t-1.18 1.16q-.51.82-.82 2.21-.3 1.39-.3 3.51t.3 3.51q.31 1.39.82 2.21.51.83 1.18 1.16t1.38.33q.73 0 1.41-.33.67-.33 1.19-1.16.52-.82.83-2.21t.31-3.51"/></svg>